<svg width="179" height="198" viewBox="0 0 179 198" fill="none" xmlns="http://www.w3.org/2000/svg">
<path d="M25.9288 152.292L75.6143 140.371L61.095 189.361L25.9288 152.292Z" fill="white"/>
<rect y="10.8066" width="169" height="155" rx="22" transform="rotate(-3.66624 0 10.8066)" fill="white"/>
<path d="M80.5328 87.1197C82.4116 89.6315 84.8087 91.7099 87.5614 93.2138C90.3142 94.7177 93.3581 95.6121 96.4869 95.8362C99.6156 96.0602 102.756 95.6088 105.695 94.5125C108.634 93.4162 111.303 91.7006 113.52 89.4822L126.645 76.3572C130.63 72.2315 132.835 66.7058 132.785 60.9703C132.735 55.2347 130.435 49.7482 126.379 45.6924C122.323 41.6366 116.836 39.336 111.101 39.2862C105.365 39.2364 99.8397 41.4412 95.714 45.4259L88.189 52.9072" stroke="#132742" stroke-width="5" stroke-linecap="round" stroke-linejoin="round"/>
<path d="M98.0328 78.3697C96.1539 75.8579 93.7569 73.7795 91.0041 72.2756C88.2514 70.7716 85.2074 69.8773 82.0787 69.6532C78.9499 69.4292 75.8096 69.8806 72.8707 70.9769C69.9317 72.0732 67.2629 73.7888 65.0453 76.0072L51.9203 89.1322C47.9356 93.2579 45.7307 98.7835 45.7806 104.519C45.8304 110.255 48.131 115.741 52.1868 119.797C56.2426 123.853 61.7291 126.153 67.4646 126.203C73.2002 126.253 78.7259 124.048 82.8515 120.063L90.3328 112.582" stroke="#132742" stroke-width="5" stroke-linecap="round" stroke-linejoin="round"/>
</svg>
